<mxfile host="app.diagrams.net" modified="2020-06-08T02:03:25.373Z" agent="Mozilla/5.0 (Macintosh; Intel Mac OS X 10_13_1) AppleWebKit/537.36 (KHTML, like Gecko) Chrome/83.0.4103.61 Safari/537.36" etag="LyAnmMapEr_bgOGx6EMS" version="12.8.8" type="github">
  <diagram id="wI63MmQ68koySXtprvD7" name="第 1 页">
    <mxGraphModel dx="1773" dy="625" grid="0" gridSize="10" guides="1" tooltips="1" connect="1" arrows="1" fold="1" page="1" pageScale="1" pageWidth="827" pageHeight="1169" math="0" shadow="0">
      <root>
        <mxCell id="0" />
        <mxCell id="1" parent="0" />
        <mxCell id="GBKurf3LtBJvcDkh6TC3-5" value="" style="whiteSpace=wrap;html=1;aspect=fixed;" vertex="1" parent="1">
          <mxGeometry x="350" y="420" width="140" height="140" as="geometry" />
        </mxCell>
        <mxCell id="GBKurf3LtBJvcDkh6TC3-6" value="" style="whiteSpace=wrap;html=1;aspect=fixed;" vertex="1" parent="1">
          <mxGeometry x="490" y="480" width="80" height="80" as="geometry" />
        </mxCell>
        <mxCell id="GBKurf3LtBJvcDkh6TC3-7" value="" style="whiteSpace=wrap;html=1;aspect=fixed;" vertex="1" parent="1">
          <mxGeometry x="270" y="480" width="80" height="80" as="geometry" />
        </mxCell>
        <mxCell id="GBKurf3LtBJvcDkh6TC3-8" value="" style="rounded=0;whiteSpace=wrap;html=1;" vertex="1" parent="1">
          <mxGeometry x="570" y="500" width="90" height="60" as="geometry" />
        </mxCell>
        <mxCell id="GBKurf3LtBJvcDkh6TC3-10" value="" style="rounded=0;whiteSpace=wrap;html=1;" vertex="1" parent="1">
          <mxGeometry x="170" y="500" width="100" height="60" as="geometry" />
        </mxCell>
        <mxCell id="GBKurf3LtBJvcDkh6TC3-26" value="" style="ellipse;whiteSpace=wrap;html=1;aspect=fixed;fillColor=#F8CECC;" vertex="1" parent="1">
          <mxGeometry x="390" y="260" width="60" height="60" as="geometry" />
        </mxCell>
        <mxCell id="GBKurf3LtBJvcDkh6TC3-28" value="" style="triangle;whiteSpace=wrap;html=1;direction=north;fillColor=#FF0000;" vertex="1" parent="1">
          <mxGeometry x="380" y="320" width="80" height="60" as="geometry" />
        </mxCell>
        <mxCell id="GBKurf3LtBJvcDkh6TC3-29" value="" style="rounded=0;whiteSpace=wrap;html=1;direction=south;fillColor=#F8CECC;" vertex="1" parent="1">
          <mxGeometry x="407" y="380" width="7" height="35" as="geometry" />
        </mxCell>
        <mxCell id="GBKurf3LtBJvcDkh6TC3-30" value="" style="rounded=0;whiteSpace=wrap;html=1;direction=south;fillColor=#F8CECC;" vertex="1" parent="1">
          <mxGeometry x="427" y="380" width="6" height="35" as="geometry" />
        </mxCell>
        <mxCell id="GBKurf3LtBJvcDkh6TC3-37" value="" style="verticalLabelPosition=bottom;verticalAlign=top;html=1;shape=mxgraph.basic.sun;fillColor=#FFFF00;strokeColor=none;" vertex="1" parent="1">
          <mxGeometry width="110" height="110" as="geometry" />
        </mxCell>
        <mxCell id="GBKurf3LtBJvcDkh6TC3-38" value="" style="ellipse;whiteSpace=wrap;html=1;aspect=fixed;fillColor=#FF3333;strokeColor=none;" vertex="1" parent="1">
          <mxGeometry x="20" y="20" width="70" height="70" as="geometry" />
        </mxCell>
        <mxCell id="GBKurf3LtBJvcDkh6TC3-39" value="2" style="text;html=1;align=center;verticalAlign=middle;resizable=0;points=[];autosize=1;strokeWidth=3;fontStyle=1;fontSize=48;" vertex="1" parent="1">
          <mxGeometry x="290" y="490" width="40" height="60" as="geometry" />
        </mxCell>
        <mxCell id="GBKurf3LtBJvcDkh6TC3-40" value="2" style="text;html=1;align=center;verticalAlign=middle;resizable=0;points=[];autosize=1;strokeWidth=3;fontStyle=1;fontSize=48;" vertex="1" parent="1">
          <mxGeometry x="510" y="490" width="40" height="60" as="geometry" />
        </mxCell>
        <mxCell id="GBKurf3LtBJvcDkh6TC3-41" value="3" style="text;html=1;align=center;verticalAlign=middle;resizable=0;points=[];autosize=1;strokeWidth=3;fontStyle=1;fontSize=48;" vertex="1" parent="1">
          <mxGeometry x="200" y="500" width="40" height="60" as="geometry" />
        </mxCell>
        <mxCell id="GBKurf3LtBJvcDkh6TC3-43" value="3" style="text;html=1;align=center;verticalAlign=middle;resizable=0;points=[];autosize=1;strokeWidth=3;fontStyle=1;fontSize=48;" vertex="1" parent="1">
          <mxGeometry x="600" y="500" width="40" height="60" as="geometry" />
        </mxCell>
        <mxCell id="GBKurf3LtBJvcDkh6TC3-44" value="1" style="text;html=1;align=center;verticalAlign=middle;resizable=0;points=[];autosize=1;strokeWidth=3;fontStyle=1;fontSize=58;fontColor=#97D077;" vertex="1" parent="1">
          <mxGeometry x="395" y="450" width="50" height="80" as="geometry" />
        </mxCell>
        <mxCell id="GBKurf3LtBJvcDkh6TC3-47" value="" style="rounded=0;whiteSpace=wrap;html=1;direction=south;rotation=75;fillColor=#F8CECC;" vertex="1" parent="1">
          <mxGeometry x="388" y="332.5" width="7" height="35" as="geometry" />
        </mxCell>
        <mxCell id="GBKurf3LtBJvcDkh6TC3-50" value="" style="rounded=0;whiteSpace=wrap;html=1;direction=south;rotation=98;fillColor=#F8CECC;" vertex="1" parent="1">
          <mxGeometry x="443" y="330" width="7" height="35" as="geometry" />
        </mxCell>
        <mxCell id="GBKurf3LtBJvcDkh6TC3-52" value="" style="shape=xor;whiteSpace=wrap;html=1;strokeColor=#000000;strokeWidth=1;fillColor=#FF99FF;fontSize=58;fontColor=#97D077;direction=north;" vertex="1" parent="1">
          <mxGeometry x="390" y="250" width="60" height="30" as="geometry" />
        </mxCell>
        <mxCell id="GBKurf3LtBJvcDkh6TC3-53" value="" style="ellipse;whiteSpace=wrap;html=1;aspect=fixed;strokeColor=#000000;strokeWidth=1;fillColor=#FF99FF;fontSize=58;fontColor=#97D077;" vertex="1" parent="1">
          <mxGeometry x="404" y="230" width="32" height="32" as="geometry" />
        </mxCell>
        <mxCell id="GBKurf3LtBJvcDkh6TC3-54" value="" style="verticalLabelPosition=bottom;verticalAlign=top;html=1;shape=mxgraph.basic.heart;strokeColor=#000000;strokeWidth=1;fillColor=#FF0080;fontSize=58;fontColor=#97D077;" vertex="1" parent="1">
          <mxGeometry x="404" y="347.5" width="30" height="20" as="geometry" />
        </mxCell>
        <mxCell id="GBKurf3LtBJvcDkh6TC3-64" value="" style="ellipse;whiteSpace=wrap;html=1;strokeColor=#000000;strokeWidth=1;fillColor=#00FFFF;fontSize=58;fontColor=#97D077;" vertex="1" parent="1">
          <mxGeometry x="50" y="490" width="120" height="80" as="geometry" />
        </mxCell>
        <mxCell id="GBKurf3LtBJvcDkh6TC3-65" value="" style="ellipse;whiteSpace=wrap;html=1;strokeColor=#000000;strokeWidth=1;fillColor=#00FFFF;fontSize=58;fontColor=#97D077;" vertex="1" parent="1">
          <mxGeometry x="660" y="490" width="120" height="80" as="geometry" />
        </mxCell>
        <mxCell id="GBKurf3LtBJvcDkh6TC3-66" value="" style="ellipse;shape=cloud;whiteSpace=wrap;html=1;strokeColor=#000000;strokeWidth=1;fillColor=#F8CECC;fontSize=58;fontColor=#97D077;" vertex="1" parent="1">
          <mxGeometry x="-30" y="60" width="120" height="80" as="geometry" />
        </mxCell>
        <mxCell id="GBKurf3LtBJvcDkh6TC3-67" value="" style="ellipse;shape=cloud;whiteSpace=wrap;html=1;strokeColor=#000000;strokeWidth=1;fillColor=#00FFFF;fontSize=58;fontColor=#97D077;" vertex="1" parent="1">
          <mxGeometry x="323" y="80" width="120" height="80" as="geometry" />
        </mxCell>
        <mxCell id="GBKurf3LtBJvcDkh6TC3-68" value="" style="ellipse;shape=cloud;whiteSpace=wrap;html=1;strokeColor=#000000;strokeWidth=1;fillColor=#F8CECC;fontSize=58;fontColor=#97D077;" vertex="1" parent="1">
          <mxGeometry x="560" y="80" width="120" height="80" as="geometry" />
        </mxCell>
        <mxCell id="GBKurf3LtBJvcDkh6TC3-69" value="" style="ellipse;shape=cloud;whiteSpace=wrap;html=1;strokeColor=#000000;strokeWidth=1;fillColor=#F8CECC;fontSize=58;fontColor=#97D077;" vertex="1" parent="1">
          <mxGeometry x="690" y="30" width="120" height="80" as="geometry" />
        </mxCell>
        <mxCell id="GBKurf3LtBJvcDkh6TC3-70" value="" style="ellipse;shape=cloud;whiteSpace=wrap;html=1;strokeColor=#000000;strokeWidth=1;fillColor=#F8CECC;fontSize=58;fontColor=#97D077;" vertex="1" parent="1">
          <mxGeometry x="414" width="120" height="80" as="geometry" />
        </mxCell>
        <mxCell id="GBKurf3LtBJvcDkh6TC3-71" value="" style="ellipse;shape=cloud;whiteSpace=wrap;html=1;strokeColor=#000000;strokeWidth=1;fillColor=#F8CECC;fontSize=58;fontColor=#97D077;" vertex="1" parent="1">
          <mxGeometry x="30" y="60" width="120" height="80" as="geometry" />
        </mxCell>
        <mxCell id="GBKurf3LtBJvcDkh6TC3-73" value="" style="ellipse;shape=cloud;whiteSpace=wrap;html=1;strokeColor=#000000;strokeWidth=1;fillColor=#00FFFF;fontSize=58;fontColor=#97D077;" vertex="1" parent="1">
          <mxGeometry x="220" y="20" width="120" height="80" as="geometry" />
        </mxCell>
        <mxCell id="GBKurf3LtBJvcDkh6TC3-83" value="&lt;span style=&quot;color: rgba(0 , 0 , 0 , 0) ; font-family: monospace ; font-size: 0px ; white-space: nowrap&quot;&gt;%3CmxGraphModel%3E%3Croot%3E%3CmxCell%20id%3D%220%22%2F%3E%3CmxCell%20id%3D%221%22%20parent%3D%220%22%2F%3E%3CmxCell%20id%3D%222%22%20value%3D%22%22%20style%3D%22rounded%3D0%3BwhiteSpace%3Dwrap%3Bhtml%3D1%3BstrokeColor%3D%23000000%3BstrokeWidth%3D1%3BfillColor%3Dnone%3BfontSize%3D58%3BfontColor%3D%2397D077%3B%22%20vertex%3D%221%22%20parent%3D%221%22%3E%3CmxGeometry%20x%3D%22-640%22%20y%3D%22520%22%20width%3D%22450%22%20height%3D%2210%22%20as%3D%22geometry%22%2F%3E%3C%2FmxCell%3E%3C%2Froot%3E%3C%2FmxGraphModel%3&lt;/span&gt;" style="rounded=0;whiteSpace=wrap;html=1;strokeColor=#b85450;strokeWidth=1;fillColor=#000000;fontSize=58;" vertex="1" parent="1">
          <mxGeometry x="-720" y="520" width="546" height="10" as="geometry" />
        </mxCell>
        <mxCell id="GBKurf3LtBJvcDkh6TC3-88" value="&lt;span style=&quot;color: rgba(0 , 0 , 0 , 0) ; font-family: monospace ; font-size: 0px ; white-space: nowrap&quot;&gt;%3CmxGraphModel%3E%3Croot%3E%3CmxCell%20id%3D%220%22%2F%3E%3CmxCell%20id%3D%221%22%20parent%3D%220%22%2F%3E%3CmxCell%20id%3D%222%22%20value%3D%22%22%20style%3D%22rounded%3D0%3BwhiteSpace%3Dwrap%3Bhtml%3D1%3BstrokeColor%3D%23000000%3BstrokeWidth%3D1%3BfillColor%3Dnone%3BfontSize%3D58%3BfontColor%3D%2397D077%3B%22%20vertex%3D%221%22%20parent%3D%221%22%3E%3CmxGeometry%20x%3D%22-640%22%20y%3D%22520%22%20width%3D%22450%22%20height%3D%2210%22%20as%3D%22geometry%22%2F%3E%3C%2FmxCell%3E%3C%2Froot%3E%3C%2FmxGraphModel%3&lt;/span&gt;" style="rounded=0;whiteSpace=wrap;html=1;strokeColor=#6c8ebf;strokeWidth=1;fillColor=#000000;fontSize=58;" vertex="1" parent="1">
          <mxGeometry x="-620" y="530" width="446" height="10" as="geometry" />
        </mxCell>
        <mxCell id="GBKurf3LtBJvcDkh6TC3-89" value="&lt;span style=&quot;color: rgba(0 , 0 , 0 , 0) ; font-family: monospace ; font-size: 0px ; white-space: nowrap&quot;&gt;cc&lt;/span&gt;&lt;span style=&quot;color: rgba(0 , 0 , 0 , 0) ; font-family: monospace ; font-size: 0px ; white-space: nowrap&quot;&gt;%3CmxGraphModel%3E%3Croot%3E%3CmxCell%20id%3D%220%22%2F%3E%3CmxCell%20id%3D%221%22%20parent%3D%220%22%2F%3E%3CmxCell%20id%3D%222%22%20value%3D%22%26lt%3Bspan%20style%3D%26quot%3Bcolor%3A%20rgba(0%20%2C%200%20%2C%200%20%2C%200)%20%3B%20font-family%3A%20monospace%20%3B%20font-size%3A%200px%20%3B%20white-space%3A%20nowrap%26quot%3B%26gt%3B%253CmxGraphModel%253E%253Croot%253E%253CmxCell%2520id%253D%25220%2522%252F%253E%253CmxCell%2520id%253D%25221%2522%2520parent%253D%25220%2522%252F%253E%253CmxCell%2520id%253D%25222%2522%2520value%253D%2522%2522%2520style%253D%2522rounded%253D0%253BwhiteSpace%253Dwrap%253Bhtml%253D1%253BstrokeColor%253D%2523000000%253BstrokeWidth%253D1%253BfillColor%253Dnone%253BfontSize%253D58%253BfontColor%253D%252397D077%253B%2522%2520vertex%253D%25221%2522%2520parent%253D%25221%2522%253E%253CmxGeometry%2520x%253D%2522-640%2522%2520y%253D%2522520%2522%2520width%253D%2522450%2522%2520height%253D%252210%2522%2520as%253D%2522geometry%2522%252F%253E%253C%252FmxCell%253E%253C%252Froot%253E%253C%252FmxGraphModel%253%26lt%3B%2Fspan%26gt%3B%22%20style%3D%22rounded%3D0%3BwhiteSpace%3Dwrap%3Bhtml%3D1%3BstrokeColor%3D%23000000%3BstrokeWidth%3D1%3BfillColor%3Dnone%3BfontSize%3D58%3BfontColor%3D%2397D077%3B%22%20vertex%3D%221%22%20parent%3D%221%22%3E%3CmxGeometry%20x%3D%22-620%22%20y%3D%22540%22%20width%3D%22450%22%20height%3D%2210%22%20as%3D%22geometry%22%2F%3E%3C%2FmxCell%3E%3C%2Froot%3E%3C%2FmxGraphModel%3E&lt;/span&gt;&lt;span style=&quot;color: rgba(0 , 0 , 0 , 0) ; font-family: monospace ; font-size: 0px ; white-space: nowrap&quot;&gt;%3CmxGraphModel%3E%3Croot%3E%3CmxCell%20id%3D%220%22%2F%3E%3CmxCell%20id%3D%221%22%20parent%3D%220%22%2F%3E%3CmxCell%20id%3D%222%22%20value%3D%22%26lt%3Bspan%20style%3D%26quot%3Bcolor%3A%20rgba(0%20%2C%200%20%2C%200%20%2C%200)%20%3B%20font-family%3A%20monospace%20%3B%20font-size%3A%200px%20%3B%20white-space%3A%20nowrap%26quot%3B%26gt%3B%253CmxGraphModel%253E%253Croot%253E%253CmxCell%2520id%253D%25220%2522%252F%253E%253CmxCell%2520id%253D%25221%2522%2520parent%253D%25220%2522%252F%253E%253CmxCell%2520id%253D%25222%2522%2520value%253D%2522%2522%2520style%253D%2522rounded%253D0%253BwhiteSpace%253Dwrap%253Bhtml%253D1%253BstrokeColor%253D%2523000000%253BstrokeWidth%253D1%253BfillColor%253Dnone%253BfontSize%253D58%253BfontColor%253D%252397D077%253B%2522%2520vertex%253D%25221%2522%2520parent%253D%25221%2522%253E%253CmxGeometry%2520x%253D%2522-640%2522%2520y%253D%2522520%2522%2520width%253D%2522450%2522%2520height%253D%252210%2522%2520as%253D%2522geometry%2522%252F%253E%253C%252FmxCell%253E%253C%252Froot%253E%253C%252FmxGraphModel%253%26lt%3B%2Fspan%26gt%3B%22%20style%3D%22rounded%3D0%3BwhiteSpace%3Dwrap%3Bhtml%3D1%3BstrokeColor%3D%23000000%3BstrokeWidth%3D1%3BfillColor%3Dnone%3BfontSize%3D58%3BfontColor%3D%2397D077%3B%22%20vertex%3D%221%22%20parent%3D%221%22%3E%3CmxGeometry%20x%3D%22-620%22%20y%3D%22540%22%20width%3D%22450%22%20height%3D%2210%22%20as%3D%22geometry%22%2F%3E%3C%2FmxCell%3E%3C%2Froot%3E%3C%2FmxGraphModel%3E&lt;/span&gt;&lt;span style=&quot;color: rgba(0 , 0 , 0 , 0) ; font-family: monospace ; font-size: 0px ; white-space: nowrap&quot;&gt;%3CmxGraphModel%3E%3Croot%3E%3CmxCell%20id%3D%220%22%2F%3E%3CmxCell%20id%3D%221%22%20parent%3D%220%22%2F%3E%3CmxCell%20id%3D%222%22%20value%3D%22%26lt%3Bspan%20style%3D%26quot%3Bcolor%3A%20rgba(0%20%2C%200%20%2C%200%20%2C%200)%20%3B%20font-family%3A%20monospace%20%3B%20font-size%3A%200px%20%3B%20white-space%3A%20nowrap%26quot%3B%26gt%3B%253CmxGraphModel%253E%253Croot%253E%253CmxCell%2520id%253D%25220%2522%252F%253E%253CmxCell%2520id%253D%25221%2522%2520parent%253D%25220%2522%252F%253E%253CmxCell%2520id%253D%25222%2522%2520value%253D%2522%2522%2520style%253D%2522rounded%253D0%253BwhiteSpace%253Dwrap%253Bhtml%253D1%253BstrokeColor%253D%2523000000%253BstrokeWidth%253D1%253BfillColor%253Dnone%253BfontSize%253D58%253BfontColor%253D%252397D077%253B%2522%2520vertex%253D%25221%2522%2520parent%253D%25221%2522%253E%253CmxGeometry%2520x%253D%2522-640%2522%2520y%253D%2522520%2522%2520width%253D%2522450%2522%2520height%253D%252210%2522%2520as%253D%2522geometry%2522%252F%253E%253C%252FmxCell%253E%253C%252Froot%253E%253C%252FmxGraphModel%253%26lt%3B%2Fspan%26gt%3B%22%20style%3D%22rounded%3D0%3BwhiteSpace%3Dwrap%3Bhtml%3D1%3BstrokeColor%3D%23000000%3BstrokeWidth%3D1%3BfillColor%3Dnone%3BfontSize%3D58%3BfontColor%3D%2397D077%3B%22%20vertex%3D%221%22%20parent%3D%221%22%3E%3CmxGeometry%20x%3D%22-620%22%20y%3D%22540%22%20width%3D%22450%22%20height%3D%2210%22%20as%3D%22geometry%22%2F%3E%3C%2FmxCell%3E%3C%2Froot%3E%3C%2FmxGraphModel%3E&lt;/span&gt;&lt;span style=&quot;color: rgba(0 , 0 , 0 , 0) ; font-family: monospace ; font-size: 0px ; white-space: nowrap&quot;&gt;%3CmxGraphModel%3E%3Croot%3E%3CmxCell%20id%3D%220%22%2F%3E%3CmxCell%20id%3D%221%22%20parent%3D%220%22%2F%3E%3CmxCell%20id%3D%222%22%20value%3D%22%26lt%3Bspan%20style%3D%26quot%3Bcolor%3A%20rgba(0%20%2C%200%20%2C%200%20%2C%200)%20%3B%20font-family%3A%20monospace%20%3B%20font-size%3A%200px%20%3B%20white-space%3A%20nowrap%26quot%3B%26gt%3B%253CmxGraphModel%253E%253Croot%253E%253CmxCell%2520id%253D%25220%2522%252F%253E%253CmxCell%2520id%253D%25221%2522%2520parent%253D%25220%2522%252F%253E%253CmxCell%2520id%253D%25222%2522%2520value%253D%2522%2522%2520style%253D%2522rounded%253D0%253BwhiteSpace%253Dwrap%253Bhtml%253D1%253BstrokeColor%253D%2523000000%253BstrokeWidth%253D1%253BfillColor%253Dnone%253BfontSize%253D58%253BfontColor%253D%252397D077%253B%2522%2520vertex%253D%25221%2522%2520parent%253D%25221%2522%253E%253CmxGeometry%2520x%253D%2522-640%2522%2520y%253D%2522520%2522%2520width%253D%2522450%2522%2520height%253D%252210%2522%2520as%253D%2522geometry%2522%252F%253E%253C%252FmxCell%253E%253C%252Froot%253E%253C%252FmxGraphModel%253%26lt%3B%2Fspan%26gt%3B%22%20style%3D%22rounded%3D0%3BwhiteSpace%3Dwrap%3Bhtml%3D1%3BstrokeColor%3D%23000000%3BstrokeWidth%3D1%3BfillColor%3Dnone%3BfontSize%3D58%3BfontColor%3D%2397D077%3B%22%20vertex%3D%221%22%20parent%3D%221%22%3E%3CmxGeometry%20x%3D%22-620%22%20y%3D%22540%22%20width%3D%22450%22%20height%3D%2210%22%20as%3D%22geometry%22%2F%3E%3C%2FmxCell%3E%3C%2Froot%3E%3C%2FmxGraphModel%3E&lt;/span&gt;&lt;span style=&quot;color: rgba(0 , 0 , 0 , 0) ; font-family: monospace ; font-size: 0px ; white-space: nowrap&quot;&gt;%3CmxGraphModel%3E%3Croot%3E%3CmxCell%20id%3D%220%22%2F%3E%3CmxCell%20id%3D%221%22%20parent%3D%220%22%2F%3E%3CmxCell%20id%3D%222%22%20value%3D%22%26lt%3Bspan%20style%3D%26quot%3Bcolor%3A%20rgba(0%20%2C%200%20%2C%200%20%2C%200)%20%3B%20font-family%3A%20monospace%20%3B%20font-size%3A%200px%20%3B%20white-space%3A%20nowrap%26quot%3B%26gt%3B%253CmxGraphModel%253E%253Croot%253E%253CmxCell%2520id%253D%25220%2522%252F%253E%253CmxCell%2520id%253D%25221%2522%2520parent%253D%25220%2522%252F%253E%253CmxCell%2520id%253D%25222%2522%2520value%253D%2522%2522%2520style%253D%2522rounded%253D0%253BwhiteSpace%253Dwrap%253Bhtml%253D1%253BstrokeColor%253D%2523000000%253BstrokeWidth%253D1%253BfillColor%253Dnone%253BfontSize%253D58%253BfontColor%253D%252397D077%253B%2522%2520vertex%253D%25221%2522%2520parent%253D%25221%2522%253E%253CmxGeometry%2520x%253D%2522-640%2522%2520y%253D%2522520%2522%2520width%253D%2522450%2522%2520height%253D%252210%2522%2520as%253D%2522geometry%2522%252F%253E%253C%252FmxCell%253E%253C%252Froot%253E%253C%252FmxGraphModel%253%26lt%3B%2Fspan%26gt%3B%22%20style%3D%22rounded%3D0%3BwhiteSpace%3Dwrap%3Bhtml%3D1%3BstrokeColor%3D%23000000%3BstrokeWidth%3D1%3BfillColor%3Dnone%3BfontSize%3D58%3BfontColor%3D%2397D077%3B%22%20vertex%3D%221%22%20parent%3D%221%22%3E%3CmxGeometry%20x%3D%22-620%22%20y%3D%22540%22%20width%3D%22450%22%20height%3D%2210%22%20as%3D%22geometry%22%2F%3E%3C%2FmxCell%3E%3C%2Froot%3E%3C%2FmxGraphModel%3E&lt;/span&gt;&lt;span style=&quot;color: rgba(0 , 0 , 0 , 0) ; font-family: monospace ; font-size: 0px ; white-space: nowrap&quot;&gt;%3CmxGraphModel%3E%3Croot%3E%3CmxCell%20id%3D%220%22%2F%3E%3CmxCell%20id%3D%221%22%20parent%3D%220%22%2F%3E%3CmxCell%20id%3D%222%22%20value%3D%22%26lt%3Bspan%20style%3D%26quot%3Bcolor%3A%20rgba(0%20%2C%200%20%2C%200%20%2C%200)%20%3B%20font-family%3A%20monospace%20%3B%20font-size%3A%200px%20%3B%20white-space%3A%20nowrap%26quot%3B%26gt%3B%253CmxGraphModel%253E%253Croot%253E%253CmxCell%2520id%253D%25220%2522%252F%253E%253CmxCell%2520id%253D%25221%2522%2520parent%253D%25220%2522%252F%253E%253CmxCell%2520id%253D%25222%2522%2520value%253D%2522%2522%2520style%253D%2522rounded%253D0%253BwhiteSpace%253Dwrap%253Bhtml%253D1%253BstrokeColor%253D%2523000000%253BstrokeWidth%253D1%253BfillColor%253Dnone%253BfontSize%253D58%253BfontColor%253D%252397D077%253B%2522%2520vertex%253D%25221%2522%2520parent%253D%25221%2522%253E%253CmxGeometry%2520x%253D%2522-640%2522%2520y%253D%2522520%2522%2520width%253D%2522450%2522%2520height%253D%252210%2522%2520as%253D%2522geometry%2522%252F%253E%253C%252FmxCell%253E%253C%252Froot%253E%253C%252FmxGraphModel%253%26lt%3B%2Fspan%26gt%3B%22%20style%3D%22rounded%3D0%3BwhiteSpace%3Dwrap%3Bhtml%3D1%3BstrokeColor%3D%23000000%3BstrokeWidth%3D1%3BfillColor%3Dnone%3BfontSize%3D58%3BfontColor%3D%2397D077%3B%22%20vertex%3D%221%22%20parent%3D%221%22%3E%3CmxGeometry%20x%3D%22-620%22%20y%3D%22540%22%20width%3D%22450%22%20height%3D%2210%22%20as%3D%22geometry%22%2F%3E%3C%2FmxCell%3E%3C%2Froot%3E%3C%2FmxGraphModel%3E&lt;/span&gt;&lt;span style=&quot;color: rgba(0 , 0 , 0 , 0) ; font-family: monospace ; font-size: 0px ; white-space: nowrap&quot;&gt;%3CmxGraphModel%3E%3Croot%3E%3CmxCell%20id%3D%220%22%2F%3E%3CmxCell%20id%3D%221%22%20parent%3D%220%22%2F%3E%3CmxCell%20id%3D%222%22%20value%3D%22%26lt%3Bspan%20style%3D%26quot%3Bcolor%3A%20rgba(0%20%2C%200%20%2C%200%20%2C%200)%20%3B%20font-family%3A%20monospace%20%3B%20font-size%3A%200px%20%3B%20white-space%3A%20nowrap%26quot%3B%26gt%3B%253CmxGraphModel%253E%253Croot%253E%253CmxCell%2520id%253D%25220%2522%252F%253E%253CmxCell%2520id%253D%25221%2522%2520parent%253D%25220%2522%252F%253E%253CmxCell%2520id%253D%25222%2522%2520value%253D%2522%2522%2520style%253D%2522rounded%253D0%253BwhiteSpace%253Dwrap%253Bhtml%253D1%253BstrokeColor%253D%2523000000%253BstrokeWidth%253D1%253BfillColor%253Dnone%253BfontSize%253D58%253BfontColor%253D%252397D077%253B%2522%2520vertex%253D%25221%2522%2520parent%253D%25221%2522%253E%253CmxGeometry%2520x%253D%2522-640%2522%2520y%253D%2522520%2522%2520width%253D%2522450%2522%2520height%253D%252210%2522%2520as%253D%2522geometry%2522%252F%253E%253C%252FmxCell%253E%253C%252Froot%253E%253C%252FmxGraphModel%253%26lt%3B%2Fspan%26gt%3B%22%20style%3D%22rounded%3D0%3BwhiteSpace%3Dwrap%3Bhtml%3D1%3BstrokeColor%3D%23000000%3BstrokeWidth%3D1%3BfillColor%3Dnone%3BfontSize%3D58%3BfontColor%3D%2397D077%3B%22%20vertex%3D%221%22%20parent%3D%221%22%3E%3CmxGeometry%20x%3D%22-620%22%20y%3D%22540%22%20width%3D%22450%22%20height%3D%2210%22%20as%3D%22geometry%22%2F%3E%3C%2FmxCell%3E%3C%2Froot%3E%3C%2FmxGraphModel%3E&lt;/span&gt;" style="rounded=0;whiteSpace=wrap;html=1;strokeColor=#b85450;strokeWidth=1;fillColor=#000000;fontSize=58;" vertex="1" parent="1">
          <mxGeometry x="-570" y="540" width="399" height="10" as="geometry" />
        </mxCell>
        <mxCell id="GBKurf3LtBJvcDkh6TC3-91" value="&lt;div style=&quot;text-align: center&quot;&gt;&lt;br&gt;&lt;/div&gt;&lt;span style=&quot;color: rgba(0 , 0 , 0 , 0) ; font-family: monospace ; font-size: 0px ; white-space: nowrap&quot;&gt;%3CmxGraphModel%3E%3Croot%3E%3CmxCell%20id%3D%220%22%2F%3E%3CmxCell%20id%3D%221%22%20parent%3D%220%22%2F%3E%3CmxCell%20id%3D%222%22%20value%3D%22%22%20style%3D%22rounded%3D0%3BwhiteSpace%3Dwrap%3Bhtml%3D1%3BstrokeColor%3D%23000000%3BstrokeWidth%3D1%3BfillColor%3Dnone%3BfontSize%3D58%3BfontColor%3D%2397D077%3Bdirection%3Dsouth%3B%22%20vertex%3D%221%22%20parent%3D%221%22%3E%3CmxGeometry%20x%3D%22-400%22%20y%3D%22500%22%20width%3D%2210%22%20height%3D%2220%22%20as%3D%22geometry%22%2F%3E%3C%2FmxCell%3E%3C%2Froot%3E%3C%2FmxGraphModel%&lt;/span&gt;&lt;div style=&quot;text-align: center&quot;&gt;&lt;span style=&quot;color: rgba(0 , 0 , 0 , 0) ; font-family: monospace ; font-size: 0px ; white-space: nowrap&quot;&gt;%3CmxGraphModel%3E%3Croot%3E%3CmxCell%20id%3D%220%22%2F%3E%3CmxCell%20id%3D%221%22%20parent%3D%220%22%2F%3E%3CmxCell%20id%3D%222%22%20value%3D%22%22%20style%3D%22rounded%3D0%3BwhiteSpace%3Dwrap%3Bhtml%3D1%3BstrokeColor%3D%23000000%3BstrokeWidth%3D1%3BfillColor%3Dnone%3BfontSize%3D58%3BfontColor%3D%2397D077%3Bdirection%3Dsouth%3B%22%20vertex%3D%221%22%20parent%3D%221%22%3E%3CmxGeometry%20x%3D%22-400%22%20y%3D%22500%22%20width%3D%2210%22%20height%3D%2220%22%20as%3D%22geometry%22%2F%3E%3C%2FmxCell%3E%3C%2Froot%3E%3C%2FmxGraphModel%3&lt;/span&gt;&lt;/div&gt;" style="rounded=0;whiteSpace=wrap;html=1;strokeColor=#b85450;strokeWidth=1;fillColor=#000000;fontSize=58;direction=south;" vertex="1" parent="1">
          <mxGeometry x="-390" y="500" width="10" height="20" as="geometry" />
        </mxCell>
        <mxCell id="GBKurf3LtBJvcDkh6TC3-92" value="&lt;div style=&quot;text-align: center&quot;&gt;&lt;br&gt;&lt;/div&gt;&lt;span style=&quot;color: rgba(0 , 0 , 0 , 0) ; font-family: monospace ; font-size: 0px ; white-space: nowrap&quot;&gt;%3CmxGraphModel%3E%3Croot%3E%3CmxCell%20id%3D%220%22%2F%3E%3CmxCell%20id%3D%221%22%20parent%3D%220%22%2F%3E%3CmxCell%20id%3D%222%22%20value%3D%22%22%20style%3D%22rounded%3D0%3BwhiteSpace%3Dwrap%3Bhtml%3D1%3BstrokeColor%3D%23000000%3BstrokeWidth%3D1%3BfillColor%3Dnone%3BfontSize%3D58%3BfontColor%3D%2397D077%3Bdirection%3Dsouth%3B%22%20vertex%3D%221%22%20parent%3D%221%22%3E%3CmxGeometry%20x%3D%22-400%22%20y%3D%22500%22%20width%3D%2210%22%20height%3D%2220%22%20as%3D%22geometry%22%2F%3E%3C%2FmxCell%3E%3C%2Froot%3E%3C%2FmxGraphModel%&lt;/span&gt;&lt;div style=&quot;text-align: center&quot;&gt;&lt;span style=&quot;color: rgba(0 , 0 , 0 , 0) ; font-family: monospace ; font-size: 0px ; white-space: nowrap&quot;&gt;%3CmxGraphModel%3E%3Croot%3E%3CmxCell%20id%3D%220%22%2F%3E%3CmxCell%20id%3D%221%22%20parent%3D%220%22%2F%3E%3CmxCell%20id%3D%222%22%20value%3D%22%22%20style%3D%22rounded%3D0%3BwhiteSpace%3Dwrap%3Bhtml%3D1%3BstrokeColor%3D%23000000%3BstrokeWidth%3D1%3BfillColor%3Dnone%3BfontSize%3D58%3BfontColor%3D%2397D077%3Bdirection%3Dsouth%3B%22%20vertex%3D%221%22%20parent%3D%221%22%3E%3CmxGeometry%20x%3D%22-400%22%20y%3D%22500%22%20width%3D%2210%22%20height%3D%2220%22%20as%3D%22geometry%22%2F%3E%3C%2FmxCell%3E%3C%2Froot%3E%3C%2FmxGraphModel%3&lt;/span&gt;&lt;/div&gt;" style="rounded=0;whiteSpace=wrap;html=1;strokeColor=#6c8ebf;strokeWidth=1;fillColor=#000000;fontSize=58;direction=south;" vertex="1" parent="1">
          <mxGeometry x="-280" y="500" width="10" height="20" as="geometry" />
        </mxCell>
        <mxCell id="GBKurf3LtBJvcDkh6TC3-96" value="" style="rounded=0;whiteSpace=wrap;html=1;strokeColor=#666666;strokeWidth=1;fillColor=#000000;fontSize=58;fontColor=#333333;" vertex="1" parent="1">
          <mxGeometry x="-390" y="482" width="120" height="18" as="geometry" />
        </mxCell>
        <mxCell id="GBKurf3LtBJvcDkh6TC3-99" value="" style="triangle;whiteSpace=wrap;html=1;strokeColor=#b85450;strokeWidth=1;fillColor=#000000;fontSize=58;" vertex="1" parent="1">
          <mxGeometry x="-270" y="482" width="51" height="18" as="geometry" />
        </mxCell>
        <mxCell id="GBKurf3LtBJvcDkh6TC3-104" value="" style="shape=trapezoid;perimeter=trapezoidPerimeter;whiteSpace=wrap;html=1;strokeColor=#1A1A1A;strokeWidth=1;fillColor=#000000;fontSize=58;fontColor=#97D077;direction=south;" vertex="1" parent="1">
          <mxGeometry x="-473" y="475" width="83" height="32" as="geometry" />
        </mxCell>
        <mxCell id="GBKurf3LtBJvcDkh6TC3-106" value="c&lt;span style=&quot;color: rgba(0 , 0 , 0 , 0) ; font-family: monospace ; font-size: 0px ; white-space: nowrap&quot;&gt;%3CmxGraphModel%3E%3Croot%3E%3CmxCell%20id%3D%220%22%2F%3E%3CmxCell%20id%3D%221%22%20parent%3D%220%22%2F%3E%3CmxCell%20id%3D%222%22%20value%3D%22%22%20style%3D%22shape%3DdataStorage%3BwhiteSpace%3Dwrap%3Bhtml%3D1%3BstrokeColor%3D%231A1A1A%3BstrokeWidth%3D1%3BfillColor%3D%23000000%3BfontSize%3D58%3BfontColor%3D%2397D077%3Bdirection%3Dwest%3B%22%20vertex%3D%221%22%20parent%3D%221%22%3E%3CmxGeometry%20x%3D%22-438%22%20y%3D%22550%22%20width%3D%2236%22%20height%3D%2289%22%20as%3D%22geometry%22%2F%3E%3C%2FmxCell%3E%3C%2Froot%3E%3C%2FmxGraphModel%3E&lt;/span&gt;" style="shape=dataStorage;whiteSpace=wrap;html=1;strokeColor=#1A1A1A;strokeWidth=1;fillColor=#000000;fontSize=58;fontColor=#97D077;direction=west;" vertex="1" parent="1">
          <mxGeometry x="-438" y="550" width="36" height="89" as="geometry" />
        </mxCell>
        <mxCell id="GBKurf3LtBJvcDkh6TC3-108" style="edgeStyle=orthogonalEdgeStyle;rounded=0;orthogonalLoop=1;jettySize=auto;html=1;exitX=0.5;exitY=0;exitDx=0;exitDy=0;fontSize=58;fontColor=#97D077;" edge="1" parent="1" source="GBKurf3LtBJvcDkh6TC3-106" target="GBKurf3LtBJvcDkh6TC3-106">
          <mxGeometry relative="1" as="geometry" />
        </mxCell>
      </root>
    </mxGraphModel>
  </diagram>
</mxfile>
